<?xml version="1.0" encoding="UTF-8" standalone="no"?>
<!-- Uploaded to: SVG Repo, www.svgrepo.com, Generator: SVG Repo Mixer Tools -->

<svg
   width="800px"
   height="800px"
   viewBox="0 0 24 24"
   fill="none"
   version="1.1"
   id="svg2"
   sodipodi:docname="favicon.svg"
   inkscape:version="1.3.2 (091e20ef0f, 2023-11-25)"
   xmlns:inkscape="http://www.inkscape.org/namespaces/inkscape"
   xmlns:sodipodi="http://sodipodi.sourceforge.net/DTD/sodipodi-0.dtd"
   xmlns="http://www.w3.org/2000/svg"
   xmlns:svg="http://www.w3.org/2000/svg">
  <defs
     id="defs2" />
  <sodipodi:namedview
     id="namedview2"
     pagecolor="#ffffff"
     bordercolor="#666666"
     borderopacity="1.0"
     inkscape:showpageshadow="2"
     inkscape:pageopacity="0.0"
     inkscape:pagecheckerboard="0"
     inkscape:deskcolor="#d1d1d1"
     inkscape:zoom="0.514375"
     inkscape:cx="169.1373"
     inkscape:cy="484.08262"
     inkscape:window-width="1259"
     inkscape:window-height="960"
     inkscape:window-x="0"
     inkscape:window-y="0"
     inkscape:window-maximized="1"
     inkscape:current-layer="svg2" />
  <path
     d="m 21.357204,15.473238 c 0,4.976278 -3.062262,7.159899 -5.428582,7.896311 -0.09848,0.03064 -0.190419,0.03287 -0.272294,0.01345 -0.337679,-0.08012 -0.505056,-0.529384 -0.262119,-0.878525 1.02976,-1.479842 2.220114,-3.737618 2.220114,-5.861587 0,-2.28152 -1.923023,-4.975108 -3.42462,-6.63648 -0.343293,-0.3797854 -0.942037,-0.1285445 -0.960751,0.383178 -0.06211,1.695057 -0.329608,3.962893 -1.483,5.740294 -0.185624,0.286096 -0.579679,0.309723 -0.791269,0.04222 -0.360369,-0.455813 -0.720738,-1.018766 -1.0811077,-1.463584 -0.194162,-0.239544 -0.5450104,-0.242819 -0.7689166,-0.03088 -0.8729803,0.826593 -2.0951716,2.115664 -2.0951716,3.719723 0,1.087658 0.42139,2.227951 0.8968179,3.145307 0.2364799,0.456398 -0.1210589,0.996777 -0.5638184,0.900865 -0.046926,-0.01018 -0.094812,-0.02749 -0.1430482,-0.05275 -2.0850893,-1.094208 -4.5566428,-3.310813 -4.5566428,-6.917547 0,-3.680189 5.0415331,-8.7784264 6.9664972,-13.5949421 C 9.9129925,1.1182687 10.849181,0.76112762 11.500208,1.2571062 15.443334,4.260839 21.357204,10.06723 21.357204,15.473238 Z"
     fill="#1C274C"
     id="path1"
     style="fill:#91e0ee;fill-opacity:1;stroke-width:1.16965" />
</svg>
