<?xml version="1.0" encoding="UTF-8" standalone="no"?>
<!-- Uploaded to: SVG Repo, www.svgrepo.com, Generator: SVG Repo Mixer Tools -->

<svg
   width="800px"
   height="800px"
   viewBox="0 0 24 24"
   fill="none"
   version="1.1"
   id="svg2"
   sodipodi:docname="favicon.svg"
   inkscape:version="1.3 (0e150ed6c4, 2023-07-21)"
   xmlns:inkscape="http://www.inkscape.org/namespaces/inkscape"
   xmlns:sodipodi="http://sodipodi.sourceforge.net/DTD/sodipodi-0.dtd"
   xmlns="http://www.w3.org/2000/svg"
   xmlns:svg="http://www.w3.org/2000/svg">
  <defs
     id="defs2" />
  <sodipodi:namedview
     id="namedview2"
     pagecolor="#ffffff"
     bordercolor="#666666"
     borderopacity="1.0"
     inkscape:showpageshadow="2"
     inkscape:pageopacity="0.0"
     inkscape:pagecheckerboard="0"
     inkscape:deskcolor="#d1d1d1"
     inkscape:zoom="1.02875"
     inkscape:cx="400.48603"
     inkscape:cy="400.48603"
     inkscape:window-width="2536"
     inkscape:window-height="960"
     inkscape:window-x="0"
     inkscape:window-y="0"
     inkscape:window-maximized="1"
     inkscape:current-layer="svg2" />
  <path
     d="M20 15.0002C20 19.2547 17.3819 21.1216 15.3588 21.7512C15.2746 21.7774 15.196 21.7793 15.126 21.7627C14.8373 21.6942 14.6942 21.3101 14.9019 21.0116C15.7823 19.7464 16.8 17.8161 16.8 16.0002C16.8 14.0496 15.1559 11.7467 13.8721 10.3263C13.5786 10.0016 13.0667 10.2164 13.0507 10.6539C12.9976 12.1031 12.7689 14.042 11.7828 15.5616C11.6241 15.8062 11.2872 15.8264 11.1063 15.5977C10.7982 15.208 10.4901 14.7267 10.182 14.3464C10.016 14.1416 9.71604 14.1388 9.52461 14.32C8.77825 15.0267 7.73333 16.1288 7.73333 17.5002C7.73333 18.4301 8.0936 19.405 8.50007 20.1893C8.70225 20.5795 8.39657 21.0415 8.01803 20.9595C7.97791 20.9508 7.93697 20.936 7.89573 20.9144C6.11307 19.9789 4 18.0838 4 15.0002C4 11.8538 8.31029 7.49503 9.95605 3.37712C10.2157 2.72733 11.0161 2.42199 11.5727 2.84603C14.9439 5.41409 20 10.3783 20 15.0002Z"
     fill="#1C274C"
     id="path1"
     style="fill:#f6891f;fill-opacity:1" />
</svg>
