<?xml version="1.0" encoding="UTF-8" standalone="no"?>
<!-- Uploaded to: SVG Repo, www.svgrepo.com, Generator: SVG Repo Mixer Tools -->

<svg
   fill="#000000"
   width="800px"
   height="800px"
   viewBox="0 0 192 192"
   xml:space="preserve"
   style="fill-rule:evenodd;clip-rule:evenodd;stroke-linejoin:round;stroke-miterlimit:2"
   version="1.1"
   id="svg1"
   sodipodi:docname="jitsi.svg"
   inkscape:version="1.3 (0e150ed6c4, 2023-07-21)"
   xmlns:inkscape="http://www.inkscape.org/namespaces/inkscape"
   xmlns:sodipodi="http://sodipodi.sourceforge.net/DTD/sodipodi-0.dtd"
   xmlns="http://www.w3.org/2000/svg"
   xmlns:svg="http://www.w3.org/2000/svg"><defs
     id="defs1" /><sodipodi:namedview
     id="namedview1"
     pagecolor="#ffffff"
     bordercolor="#666666"
     borderopacity="1.0"
     inkscape:showpageshadow="2"
     inkscape:pageopacity="0.0"
     inkscape:pagecheckerboard="0"
     inkscape:deskcolor="#d1d1d1"
     inkscape:zoom="1.02875"
     inkscape:cx="400.48603"
     inkscape:cy="517.13244"
     inkscape:window-width="1515"
     inkscape:window-height="960"
     inkscape:window-x="0"
     inkscape:window-y="0"
     inkscape:window-maximized="1"
     inkscape:current-layer="svg1" /><path
     d="m 124.47507,145.92677 c -2.62467,4.44516 -4.94972,7.35867 -4.94972,7.35867 0,0.0144 -0.012,0.0276 -0.024,0.0419 0,0 -14.28588,16.97887 -34.300492,16.97887 -13.974276,0 -22.076,-3.96577 -26.558315,-7.59597 -2.325051,2.05659 -4.17071,4.87422 -5.752703,7.67866 -4.314528,7.66189 -6.220111,15.91701 -6.220111,15.91701 a 7.1968717,7.1968717 0 0 1 -13.794503,0.77662 c -4.829874,-13.69024 -6.723472,-26.61344 -5.141479,-39.24422 1.246419,-9.94499 6.004384,-18.85808 10.630517,-23.36077 3.27185,-3.17837 6.807366,-4.50749 9.683717,-4.50749 1.941538,0 6.040339,1.14695 10.690441,3.20114 3.008184,1.32432 6.363928,2.97103 9.420052,4.52906 -0.467408,-0.46621 -0.934815,-0.97317 -1.402222,-1.52327 -3.931014,-4.71482 -7.71821,-13.34867 -10.13914,-23.76106 -4.014907,-17.350394 10.594563,-29.384331 17.425898,-32.229522 3.128032,-1.297954 10.678456,-3.231102 16.479098,-4.628529 -0.29962,-1.704239 -0.419468,-3.361737 -0.515346,-4.99886 0,-0.09228 0,-0.184566 -0.01199,-0.276849 -0.359544,-7.217246 -0.383514,-16.330487 4.985676,-23.661588 2.480854,-3.379713 5.261332,-5.443496 8.808832,-7.199269 3.66735,-1.816895 8.4373,-3.228705 15.1368,-6.857702 3.52353,-1.909178 4.82988,-5.38477 5.4411,-8.258725 0.7071,-3.371323 0.43145,-6.1805603 0.43145,-6.1805603 a 7.1884823,7.1884823 0 0 1 13.6387,-3.8938611 c 0,0 5.48904,12.1262194 5.48904,18.6627284 0,2.977024 -0.49138,8.904706 -5.50102,16.265769 2.33703,5.366793 2.67261,10.565799 2.19322,14.94025 0.29962,-0.03116 0.61122,-0.04554 0.91084,-0.04554 5.06957,0 19.10377,3.639784 22.6273,21.368896 2.70857,13.567991 -2.361,34.958462 -3.61941,38.896662 -4.17071,13.03107 -11.20578,23.95042 -23.13066,34.21301 -2.2052,1.8912 -5.47705,1.86723 -7.96989,0.37512 z m -59.37269,-3.6254 c -3.57147,-1.87322 -8.197602,-4.22344 -12.164571,-5.97322 -1.390237,-0.61243 -3.187956,-1.2656 -4.290558,-1.65271 -0.647179,0.65078 -1.725811,1.79173 -2.361005,2.80205 -2.025431,3.16878 -3.703303,7.50488 -4.290558,12.15139 a 58.451062,58.451062 0 0 0 -0.275651,11.41072 c 3.954984,-6.27044 9.26425,-11.77027 15.760011,-14.23315 v -0.002 c 0.09588,-0.0348 0.191757,-0.0683 0.287635,-0.0995 3.116048,-1.04028 5.501023,-2.62946 7.334697,-4.40321 z m 8.389359,11.81581 c 2.900321,1.01032 6.759427,1.80731 11.709149,1.80731 13.590761,0 23.178602,-11.71874 23.202572,-11.74271 0.024,-0.0288 7.19088,-8.46126 8.83279,-17.23653 a 28.261354,28.261354 0 0 1 -4.91376,-3.37612 c -5.17744,2.47007 -12.548087,5.14987 -19.535225,6.83852 a 69.391985,69.391985 0 0 1 -7.106986,1.34949 c -0.922829,6.35794 -4.757965,15.84151 -12.18854,22.36004 z M 131.3903,128.9539 c -0.23969,1.27638 -0.56328,2.54917 -0.9468,3.80278 0.14382,0.0695 0.27565,0.14381 0.40749,0.22291 l 1.61794,0.97557 c 2.33704,-2.18004 4.36247,-4.56262 6.08828,-6.9452 -2.48085,0.76104 -4.99766,1.46814 -7.16691,1.94394 z M 97.221641,78.725607 c -5.249342,1.192487 -14.297865,3.346156 -17.641624,4.737591 -3.379713,1.404618 -10.930137,7.150131 -8.94066,15.709674 1.330313,5.768288 3.092078,10.880998 5.117509,14.656208 0.89886,1.6587 2.540777,3.5487 2.900321,3.96457 2.636656,0.40269 6.579655,-0.35475 10.750365,-1.36506 a 98.19625,98.19625 0 0 0 9.803565,-2.94227 c -2.468868,-1.13017 -5.189418,-1.90559 -8.01783,-1.90559 -3.367729,0 -6.26805,0.87729 -6.26805,0.87729 A 7.1848869,7.1848869 0 0 1 76.69168,101.80354 c 2.504823,-4.053263 6.963168,-7.474924 11.685179,-9.729264 4.602163,-2.196814 9.384098,-3.264659 12.404271,-3.264659 5.08155,0 14.86115,0.987547 25.49166,5.328441 3.93102,1.604765 8.65303,4.446361 12.99152,7.332302 -2.37299,-8.493629 -4.99766,-16.777522 -6.67553,-20.471237 a 24.353111,24.353111 0 0 1 -1.78573,-5.866559 44.969362,44.969362 0 0 1 -4.42239,3.968167 c -6.36393,5.002455 -13.15931,7.921952 -13.15931,7.921952 -2.25315,0.970769 -4.84186,0.728676 -6.87928,-0.642385 -3.97895,-2.690587 -6.927211,-5.244548 -9.120429,-7.654691 z m 7.706229,-30.373076 c 7.05904,-3.76083 12.12861,-7.333498 15.76001,-10.584974 -3.51155,1.628734 -6.41187,2.721748 -8.89272,3.793189 -2.14528,0.932417 -3.84712,1.70304 -5.21339,3.559485 a 11.752294,11.752294 0 0 0 -1.6539,3.2323 z m 21.53668,3.159193 c -5.33324,4.174306 -12.27243,8.50681 -21.33294,12.812949 0.80298,2.314264 2.43291,4.804706 5.95644,7.689447 1.83368,-1.021105 4.14674,-2.450892 6.39989,-4.219848 2.67261,-2.096141 5.38117,-4.632125 6.47179,-7.7266 0.14381,-0.437445 0.34756,-0.858111 0.57527,-1.257205 0,0 1.77375,-3.063315 1.92955,-7.298743 z m 24.04151,37.354221 c 0.25168,-3.746448 0.17977,-7.44256 -0.44344,-10.638906 -0.89886,-4.476322 -3.05613,-7.120169 -5.09354,-8.511604 -0.0599,1.735399 0.036,3.861502 0.7071,5.332037 1.25841,2.763695 3.02017,7.885998 4.82988,13.818473 z m -38.29144,15.817535 c 3.83514,2.6043 6.71149,5.23856 8.1257,6.7043 1.66588,1.72581 3.88307,3.78839 6.80736,3.78839 1.23444,0 3.16399,-0.43025 5.30927,-1.04986 -3.83514,-2.61868 -8.10172,-5.23496 -11.62526,-6.67554 a 59.149776,59.149776 0 0 0 -8.61707,-2.76729 z"
     style="clip-rule:evenodd;fill-rule:evenodd;stroke-width:1.19848;stroke-linejoin:round;stroke-miterlimit:2"
     id="path1" /></svg>
