<?xml version="1.0" encoding="UTF-8" standalone="no"?>
<!-- Uploaded to: SVG Repo, www.svgrepo.com, Generator: SVG Repo Mixer Tools -->

<svg
   aria-label="Liberapay"
   role="img"
   viewBox="0 0 512 512"
   version="1.1"
   id="svg1"
   sodipodi:docname="liberapay.svg"
   inkscape:version="1.3 (0e150ed6c4, 2023-07-21)"
   xmlns:inkscape="http://www.inkscape.org/namespaces/inkscape"
   xmlns:sodipodi="http://sodipodi.sourceforge.net/DTD/sodipodi-0.dtd"
   xmlns="http://www.w3.org/2000/svg"
   xmlns:svg="http://www.w3.org/2000/svg">
  <defs
     id="defs1" />
  <sodipodi:namedview
     id="namedview1"
     pagecolor="#ffffff"
     bordercolor="#666666"
     borderopacity="1.0"
     inkscape:showpageshadow="2"
     inkscape:pageopacity="0.0"
     inkscape:pagecheckerboard="0"
     inkscape:deskcolor="#d1d1d1"
     inkscape:zoom="0.80371094"
     inkscape:cx="116.95747"
     inkscape:cy="235.15917"
     inkscape:window-width="2560"
     inkscape:window-height="1080"
     inkscape:window-x="0"
     inkscape:window-y="0"
     inkscape:window-maximized="1"
     inkscape:current-layer="svg1" />
  <path
     fill="#ffffff"
     d="m 176.52235,417.05421 c -25.49415,0 -44.98968,-2.99932 -58.48659,-10.49759 -14.99656,-5.99863 -23.994495,-14.99657 -29.993119,-25.49416 -5.998625,-11.99724 -8.997938,-23.9945 -8.997938,-38.99106 0,-14.99656 1.499657,-29.99312 5.998625,-46.48934 L 151.0282,18.145674 232.00963,6.1484251 160.02614,307.57931 l -2.99932,16.49622 c 0,5.99862 0,10.49759 2.99932,13.4969 1.49965,4.49897 5.99862,7.49828 10.49758,10.4976 l 20.99519,4.49897 -14.99656,64.48521 M 468.95529,243.0941 c 0,25.49415 -4.49897,49.48864 -13.4969,70.48383 a 154.46458,154.46458 0 0 1 -88.47971,89.97937 175.45977,175.45977 0 0 1 -101.97662,10.49759 l -23.9945,94.47834 H 164.5251 l 85.4804,-361.41712 a 457.39512,457.39512 0 0 1 106.47559,-16.49622 c 19.49552,0 35.99174,2.99931 50.98831,8.99793 a 94.478336,94.478336 0 0 1 53.98762,59.98625 c 4.49897,13.4969 7.49827,28.49347 7.49827,43.49003 m -190.45632,107.97523 22.49484,1.49967 c 13.49691,0 25.49416,-1.49967 37.4914,-7.49829 10.4976,-4.49896 19.49553,-11.99725 28.49347,-20.99518 7.49828,-8.99794 13.4969,-19.49553 17.99587,-32.99244 4.49898,-11.99725 5.99863,-26.9938 5.99863,-41.99037 0,-14.99656 -2.99932,-26.9938 -8.99794,-37.4914 -7.49828,-10.49759 -19.49553,-16.49622 -34.49209,-16.49622 l -31.49278,2.99931 -37.4914,152.96492"
     id="path1"
     style="fill:#f6c915;fill-opacity:1;stroke-width:1.49965" />
</svg>
